HIERARCHY
ROOT hips_JNT
{
    OFFSET 0 0 0
    CHANNELS 6 Xposition Yposition Zposition Zrotation Xrotation Yrotation
    JOINT spine_JNT
    {
        OFFSET -0.000424254 9.31981 2.54342
        CHANNELS 3 Zrotation Xrotation Yrotation
        JOINT spine1_JNT
        {
            OFFSET 0 10.8731 -4.54485e-05
            CHANNELS 3 Zrotation Xrotation Yrotation
            JOINT spine2_JNT
            {
                OFFSET 0 12.4264 -5.95116
                CHANNELS 3 Zrotation Xrotation Yrotation
                JOINT neck_JNT
                {
                    OFFSET 0 13.9797 -1.46048
                    CHANNELS 3 Zrotation Xrotation Yrotation
                    JOINT head_JNT
                    {
                        OFFSET 0 5.8702 2.0915
                        CHANNELS 3 Zrotation Xrotation Yrotation
                        End Site
                        {
                            OFFSET 0 0 0
                        }
                    }
                }
                JOINT l_shoulder_JNT
                {
                    OFFSET 4.39914 12.861 -1.48501
                    CHANNELS 3 Zrotation Xrotation Yrotation
                    JOINT l_arm_JNT
                    {
                        OFFSET 8.75735 -2.31198 -0.0490516
                        CHANNELS 3 Zrotation Xrotation Yrotation
                        JOINT l_forearm_JNT
                        {
                            OFFSET 26.9001 -4.76837e-05 1.2666e-05
                            CHANNELS 3 Zrotation Xrotation Yrotation
                            JOINT l_hand_JNT
                            {
                                OFFSET 23.0148 -4.76837e-05 -3.72529e-06
                                CHANNELS 3 Zrotation Xrotation Yrotation
                                JOINT l_handThumb1_JNT
                                {
                                    OFFSET 3.63 -0.779998 2.13
                                    CHANNELS 3 Zrotation Xrotation Yrotation
                                    JOINT l_handThumb2_JNT
                                    {
                                        OFFSET 3.55114 -2.11837 2.24006
                                        CHANNELS 3 Zrotation Xrotation Yrotation
                                        JOINT l_handThumb3_JNT
                                        {
                                            OFFSET 2.15911 -1.11631 0.963467
                                            CHANNELS 3 Zrotation Xrotation Yrotation
                                            End Site
                                            {
                                                OFFSET 0 0 0
                                            }
                                        }
                                    }
                                }
                                JOINT l_handIndex1_JNT
                                {
                                    OFFSET 10.5149 -0.0410199 2.19757
                                    CHANNELS 3 Zrotation Xrotation Yrotation
                                    JOINT l_handIndex2_JNT
                                    {
                                        OFFSET 2.75183 -0.102866 -0.139054
                                        CHANNELS 3 Zrotation Xrotation Yrotation
                                        JOINT l_handIndex3_JNT
                                        {
                                            OFFSET 2.35301 -0.0733972 -0.0904871
                                            CHANNELS 3 Zrotation Xrotation Yrotation
                                            End Site
                                            {
                                                OFFSET 0 0 0
                                            }
                                        }
                                    }
                                }
                                JOINT l_handMiddle1_JNT
                                {
                                    OFFSET 10.0671 0.139201 0.0595726
                                    CHANNELS 3 Zrotation Xrotation Yrotation
                                    JOINT l_handMiddle2_JNT
                                    {
                                        OFFSET 3.90903 -0.288403 -0.119066
                                        CHANNELS 3 Zrotation Xrotation Yrotation
                                        JOINT l_handMiddle3_JNT
                                        {
                                            OFFSET 2.3284 -0.0191092 -0.0594396
                                            CHANNELS 3 Zrotation Xrotation Yrotation
                                            End Site
                                            {
                                                OFFSET 0 0 0
                                            }
                                        }
                                    }
                                }
                                JOINT l_handRing1_JNT
                                {
                                    OFFSET 9.46811 0.132239 -1.80983
                                    CHANNELS 3 Zrotation Xrotation Yrotation
                                    JOINT l_handRing2_JNT
                                    {
                                        OFFSET 3.28153 -0.224054 -0.0339366
                                        CHANNELS 3 Zrotation Xrotation Yrotation
                                        JOINT l_handRing3_JNT
                                        {
                                            OFFSET 2.245 -0.0702143 -0.00838935
                                            CHANNELS 3 Zrotation Xrotation Yrotation
                                            End Site
                                            {
                                                OFFSET 0 0 0
                                            }
                                        }
                                    }
                                }
                                JOINT l_handPinky1_JNT
                                {
                                    OFFSET 8.49077 -0.0777721 -3.58415
                                    CHANNELS 3 Zrotation Xrotation Yrotation
                                    JOINT l_handPinky2_JNT
                                    {
                                        OFFSET 2.53217 -0.0730753 -0.0170402
                                        CHANNELS 3 Zrotation Xrotation Yrotation
                                        JOINT l_handPinky3_JNT
                                        {
                                            OFFSET 1.95121 0.0251174 0.0170089
                                            CHANNELS 3 Zrotation Xrotation Yrotation
                                            End Site
                                            {
                                                OFFSET 0 0 0
                                            }
                                        }
                                    }
                                }
                            }
                        }
                    }
                }
                JOINT r_shoulder_JNT
                {
                    OFFSET -4.39782 12.8606 -1.48501
                    CHANNELS 3 Zrotation Xrotation Yrotation
                    JOINT r_arm_JNT
                    {
                        OFFSET -8.75732 -2.312 -0.0490502
                        CHANNELS 3 Zrotation Xrotation Yrotation
                        JOINT r_forearm_JNT
                        {
                            OFFSET -26.9 0 1.00583e-05
                            CHANNELS 3 Zrotation Xrotation Yrotation
                            JOINT r_hand_JNT
                            {
                                OFFSET -23.0149 0 0
                                CHANNELS 3 Zrotation Xrotation Yrotation
                                JOINT r_handThumb1_JNT
                                {
                                    OFFSET -3.63 -0.779998 2.13
                                    CHANNELS 3 Zrotation Xrotation Yrotation
                                    JOINT r_handThumb2_JNT
                                    {
                                        OFFSET -3.5512 -2.118 2.24006
                                        CHANNELS 3 Zrotation Xrotation Yrotation
                                        JOINT r_handThumb3_JNT
                                        {
                                            OFFSET -2.1591 -1.116 0.963467
                                            CHANNELS 3 Zrotation Xrotation Yrotation
                                            End Site
                                            {
                                                OFFSET 0 0 0
                                            }
                                        }
                                    }
                                }
                                JOINT r_handIndex1_JNT
                                {
                                    OFFSET -10.5149 -0.0409961 2.19756
                                    CHANNELS 3 Zrotation Xrotation Yrotation
                                    JOINT r_handIndex2_JNT
                                    {
                                        OFFSET -2.7518 -0.102997 -0.13905
                                        CHANNELS 3 Zrotation Xrotation Yrotation
                                        JOINT r_handIndex3_JNT
                                        {
                                            OFFSET -2.353 -0.0730038 -0.0904899
                                            CHANNELS 3 Zrotation Xrotation Yrotation
                                            End Site
                                            {
                                                OFFSET 0 0 0
                                            }
                                        }
                                    }
                                }
                                JOINT r_handMiddle1_JNT
                                {
                                    OFFSET -10.0671 0.139999 0.05957
                                    CHANNELS 3 Zrotation Xrotation Yrotation
                                    JOINT r_handMiddle2_JNT
                                    {
                                        OFFSET -3.9091 -0.288999 -0.11907
                                        CHANNELS 3 Zrotation Xrotation Yrotation
                                        JOINT r_handMiddle3_JNT
                                        {
                                            OFFSET -2.3284 -0.019002 -0.05944
                                            CHANNELS 3 Zrotation Xrotation Yrotation
                                            End Site
                                            {
                                                OFFSET 0 0 0
                                            }
                                        }
                                    }
                                }
                                JOINT r_handRing1_JNT
                                {
                                    OFFSET -9.4681 0.133002 -1.80983
                                    CHANNELS 3 Zrotation Xrotation Yrotation
                                    JOINT r_handRing2_JNT
                                    {
                                        OFFSET -3.2816 -0.224996 -0.0339396
                                        CHANNELS 3 Zrotation Xrotation Yrotation
                                        JOINT r_handRing3_JNT
                                        {
                                            OFFSET -2.245 -0.0699997 -0.0083901
                                            CHANNELS 3 Zrotation Xrotation Yrotation
                                            End Site
                                            {
                                                OFFSET 0 0 0
                                            }
                                        }
                                    }
                                }
                                JOINT r_handPinky1_JNT
                                {
                                    OFFSET -8.4908 -0.0769973 -3.58415
                                    CHANNELS 3 Zrotation Xrotation Yrotation
                                    JOINT r_handPinky2_JNT
                                    {
                                        OFFSET -2.5322 -0.0740051 -0.0170402
                                        CHANNELS 3 Zrotation Xrotation Yrotation
                                        JOINT r_handPinky3_JNT
                                        {
                                            OFFSET -1.9512 0.0259995 0.0170097
                                            CHANNELS 3 Zrotation Xrotation Yrotation
                                            End Site
                                            {
                                                OFFSET 0 0 0
                                            }
                                        }
                                    }
                                }
                            }
                        }
                    }
                }
            }
        }
    }
    JOINT l_upleg_JNT
    {
        OFFSET 10.0614 -5.18575 -0.706233
        CHANNELS 3 Zrotation Xrotation Yrotation
        JOINT l_leg_JNT
        {
            OFFSET -0.348572 -45.5824 -0.819168
            CHANNELS 3 Zrotation Xrotation Yrotation
            JOINT l_foot_JNT
            {
                OFFSET 0.349145 -42.3325 -1.70849
                CHANNELS 3 Zrotation Xrotation Yrotation
                JOINT l_toebase_JNT
                {
                    OFFSET 0.0702709 -8.12666 12.8887
                    CHANNELS 3 Zrotation Xrotation Yrotation
                    End Site
                    {
                        OFFSET 0 0 0
                    }
                }
            }
        }
    }
    JOINT r_upleg_JNT
    {
        OFFSET -10.061 -5.18577 -0.706233
        CHANNELS 3 Zrotation Xrotation Yrotation
        JOINT r_leg_JNT
        {
            OFFSET 0.34858 -45.5824 -0.819165
            CHANNELS 3 Zrotation Xrotation Yrotation
            JOINT r_foot_JNT
            {
                OFFSET -0.34918 -42.3325 -1.70849
                CHANNELS 3 Zrotation Xrotation Yrotation
                JOINT r_toebase_JNT
                {
                    OFFSET -0.0702001 -8.12666 12.8887
                    CHANNELS 3 Zrotation Xrotation Yrotation
                    End Site
                    {
                        OFFSET 0 0 0
                    }
                }
            }
        }
    }
}
MOTION
Frames: 4
Frame Time: 0.033333
64.986 96.2974 -88.6703 6.96557 -9.62055 -5.36935 -2.35937 0.0132109 0.0395647 -2.60518 1.75573 6.33968 -0 8.53774e-07 0 -0.824732 17.0257 0.647703 -23.7517 24.7773 5.05974 -0 8.53774e-07 0 -4.11211 -27.9504 -16.2414 13.7447 -34.7264 -137.841 -8.53774e-07 6.31141e-15 0 4.10661 20.7048 -22.2077 -0 0 0 -2.21045 -0.00426342 0.220287 -3.47578 1.04198 0.068528 -4.46918 1.33915 0.0395647 -2.97916 0.893271 0.0791294 -4.06651 0.812566 0 -5.2286 1.04415 0 -3.48552 0.69664 0.0791294 -4.64207 -0.463689 0 -5.96845 -0.595745 0.068528 -3.97889 -0.397563 0 -5.08334 -1.01523 0 -6.53616 -1.30417 0.0559529 -4.35702 -0.870498 0.0559529 -0 8.53774e-07 0 -134.666 66.7905 -166.041 14.8664 12.1752 78.5287 -5.12264e-06 -1.70755e-05 0 -4.10661 20.7048 22.2077 -0 0 0 17.4258 0.263014 1.71504 27.5828 7.90829 -1.94393 35.6057 9.90741 -3.18893 23.6024 6.84934 -1.4342 32.1866 6.08111 -1.75475 41.4786 7.54592 -2.8608 27.561 5.28702 -1.29722 36.6455 -3.41572 1.13158 47.1492 -4.19301 1.82986 31.4007 -2.98252 0.839296 40.3139 -7.37282 2.70959 52.0022 -8.95653 4.37516 34.5043 -6.46368 2.0081 7.96613 9.22116 -7.55491 7.92078 12.0116 -0.83086 -2.13443e-07 3.20165e-06 0 -0.727825 -2.25216 -3.25309 -26.0964 -2.61326 6.98052 0.465202 20.7921 -1.10215 19.2825 -10.035 10.9636 0.00222203 -0.810238 0.311533 
60.9345 97.7868 -87.6832 7.93122 -9.46969 -6.38498 -3.22414 0.0126931 0.0395647 -2.66054 1.75905 6.3127 -4.26887e-07 -4.30222e-07 0 1.4759 18.3538 -1.16901 -28.6402 23.3734 5.76444 -4.26887e-07 -4.30222e-07 0 -3.69149 -26.5014 -15.2041 14.7742 -37.1789 -137.839 1.70755e-06 3.41509e-06 0 4.10661 20.7048 -22.2077 -0 0 0 -2.27282 -0.00450737 0.223812 -3.57388 1.07134 0 -4.59534 1.37686 0.068528 -3.06323 0.918453 0.0395647 -4.18127 0.835453 0 -5.37617 1.07353 0.0559529 -3.58388 0.716272 0.068528 -4.77305 -0.476742 0.0559529 -6.13687 -0.612491 0.0395647 -4.09116 -0.408762 0.0559529 -5.2268 -1.0438 0 -6.72066 -1.34081 0.0395647 -4.47998 -0.895011 0.0559529 -4.26887e-07 -4.30222e-07 0 -129.942 63.2101 -168.037 13.1755 10.3782 76.3608 6.83019e-06 3.41509e-06 0 -4.10661 20.7048 22.2077 -0 0 0 17.3765 0.261539 1.71185 27.5037 7.88766 -1.93344 35.503 9.88307 -3.17071 23.535 6.83106 -1.42379 32.0948 6.06574 -1.7449 41.3599 7.52842 -2.84543 27.4826 5.27322 -1.28996 36.5416 -3.4074 1.12464 47.0153 -4.18394 1.82085 31.3116 -2.97494 0.833681 40.1986 -7.35551 2.6954 51.8527 -8.93854 4.35256 34.4058 -6.44765 1.99834 10.1748 9.16275 -7.78408 7.20158 13.9548 -0.882037 -3.52182e-06 -8.53774e-07 0.0559529 -3.52182e-06 -2.13443e-06 0 -24.7254 -2.02246 6.25638 0.465456 19.9944 -1.02792 16.5628 -10.0762 11.7936 0.00223184 -0.809978 0.30901 
57.0065 99.1024 -86.668 6.98862 -9.21564 -7.20804 -3.16383 0.00902851 0.0791294 -2.20089 1.82706 5.63683 -0 0 0 4.22145 20.1019 -3.36893 -30.8879 21.4632 5.68924 -0 0 0 -2.14447 -26.9682 -14.8261 15.0632 -37.6808 -137.639 8.53774e-07 3.41509e-06 0 4.10661 20.7048 -22.2077 -0 0 0 -2.18875 -0.00418013 0.216705 -3.44165 1.03176 0.0559529 -4.42529 1.32603 0 -2.9499 0.88451 0.0395647 -4.02659 0.804602 0.0559529 -5.17726 1.03393 0.0395647 -3.4513 0.689809 0.0395647 -4.59649 -0.459146 0 -5.90986 -0.589917 0.0395647 -3.93983 -0.393666 0 -5.03342 -1.00529 0.0559529 -6.47197 -1.29143 0 -4.31424 -0.861968 0.0395647 -0 0 0 -126.735 59.8469 -169.536 11.7536 9.08072 75.2999 1.70755e-06 0 0 -4.10661 20.7048 22.2077 -0 0 0 17.3272 0.260069 1.70818 27.4248 7.86703 -1.92288 35.4003 9.85872 -3.15388 23.4676 6.81279 -1.41718 32.0031 6.05037 -1.73636 41.2412 7.51091 -2.82998 27.4042 5.25943 -1.28266 36.4377 -3.39908 1.12046 46.8815 -4.17486 1.80964 31.2227 -2.96736 0.83086 40.0834 -7.33818 2.67967 51.7034 -8.92051 4.32875 34.3074 -6.43161 1.98813 13.8802 9.00339 -12.5012 7.96611 18.4158 -1.29239 -2.04906e-05 -5.97642e-06 0 2.98821e-06 6.4033e-06 0 -21.3593 0.177114 6.06663 0.456525 16.6888 -1.00248 13.7103 -9.19134 11.4519 0.00222194 -0.810286 0.306467 
53.4894 100.031 -85.5975 4.69284 -8.85474 -7.68249 -2.37891 0.00408502 0.0395647 -1.34488 1.92251 4.36154 -8.00413e-08 3.33505e-09 0 6.17046 22.2088 -4.96981 -29.9392 19.6463 5.00373 -8.00413e-08 3.33505e-09 0 0.25776 -28.2666 -14.9237 14.9525 -37.2235 -137.42 -5.12264e-06 -3.41509e-06 0 4.10661 20.7048 -22.2077 -0 0 0 -2.02585 -0.0035811 0.205584 -3.18544 0.955052 0.0884693 -4.09582 1.22751 0.0395647 -2.73031 0.818728 0 -3.72686 0.744804 0 -4.79185 0.957164 0.0395647 -3.1944 0.638523 0.0395647 -4.25436 -0.425038 0 -5.46996 -0.546149 0 -3.64658 -0.364407 0 -4.65872 -0.930635 0 -5.99012 -1.19567 0.0791294 -3.99309 -0.797921 0.0559529 -8.00413e-08 3.33505e-09 0 -125.256 56.7032 -170.622 10.4856 8.13552 75.5522 1.70755e-06 3.41509e-06 0 -4.10661 20.7048 22.2077 -0 0 0 17.2748 0.258509 1.70314 27.3407 7.84507 -1.91145 35.2911 9.83279 -3.13471 23.3959 6.79334 -1.40831 31.9056 6.034 -1.72642 41.1151 7.49224 -2.81278 27.3209 5.24474 -1.27593 36.3272 -3.39022 1.11345 46.7392 -4.16517 1.80097 31.128 -2.95928 0.823289 39.9608 -7.31972 2.66444 51.5446 -8.90127 4.30463 34.2028 -6.41453 1.97549 17.6233 8.5046 -25.7612 6.83908 27.2714 -1.66173 2.13443e-06 -9.39151e-06 0 -7.68396e-06 1.19528e-05 0 -16.8645 3.70828 6.05643 0.445042 11.2903 -0.978779 11.0322 -7.38604 10.4368 0.00222692 -0.81012 0.306467 
